<?xml version="1.0" encoding="utf-8"?>
<!-- Svg Vector Icons : http://www.onlinewebfonts.com/icon -->
<!DOCTYPE svg PUBLIC "-//W3C//DTD SVG 1.1//EN" "http://www.w3.org/Graphics/SVG/1.1/DTD/svg11.dtd">
<svg version="1.1" xmlns="http://www.w3.org/2000/svg" xmlns:xlink="http://www.w3.org/1999/xlink" x="0px" y="0px" viewBox="0 0 256 256" enable-background="new 0 0 256 256" xml:space="preserve">
<metadata> Svg Vector Icons : http://www.onlinewebfonts.com/icon </metadata>
<g><g><path fill="#000000" d="M243,189.9l-55.9-43.1c-4.6-3.6-8.4-1.7-8.4,4.1v27.6H94.4c-23.1,0-43.3-15.6-49-38c-2.3-9-11.5-14.4-20.5-12.1c-9,2.3-14.5,11.5-12.2,20.5c4.6,17.8,15.1,33.9,29.6,45.3c7.3,5.7,15.4,10.2,24.1,13.2c9,3.2,18.4,4.8,28,4.8h84.4v27.8c0,5.8,3.7,7.7,8.4,4.1l55.9-43.1C247,198.1,247,193.1,243,189.9z"/><path fill="#000000" d="M68.9,109.2c4.6,3.6,8.4,1.7,8.4-4.1V77.4h84.6c23.1,0,43.3,15.6,49,38c2,7.6,8.8,12.7,16.3,12.7c1.4,0,2.8-0.2,4.2-0.5c9-2.3,14.4-11.5,12.1-20.5c-4.6-17.8-15.1-33.9-29.6-45.3c-7.3-5.7-15.4-10.2-24.1-13.2c-9-3.2-18.4-4.8-28-4.8H77.3V15.8c0-5.8-3.7-7.7-8.4-4.1L13,54.8c-4,3.1-4,8.2,0,11.3L68.9,109.2z"/></g></g>
</svg>